<svg width="24" height="24" viewBox="0 0 24 24" fill="none" xmlns="http://www.w3.org/2000/svg">
<path d="M15.9038 10.6708C15.9038 11.4664 15.5877 12.2295 15.0251 12.7921C14.4625 13.3547 13.6995 13.6708 12.9038 13.6708C12.1082 13.6708 11.3451 13.3547 10.7825 12.7921C10.2199 12.2295 9.90381 11.4664 9.90381 10.6708C9.90381 9.87513 10.2199 9.11206 10.7825 8.54946C11.3451 7.98685 12.1082 7.67078 12.9038 7.67078C13.6995 7.67078 14.4625 7.98685 15.0251 8.54946C15.5877 9.11206 15.9038 9.87513 15.9038 10.6708Z" stroke="black" stroke-width="1.5" stroke-linecap="round" stroke-linejoin="round"/>
<path d="M20.4038 10.6708C20.4038 17.8128 12.9038 21.9208 12.9038 21.9208C12.9038 21.9208 5.40381 17.8128 5.40381 10.6708C5.40381 8.68165 6.19398 6.774 7.60051 5.36748C9.00703 3.96095 10.9147 3.17078 12.9038 3.17078C14.8929 3.17078 16.8006 3.96095 18.2071 5.36748C19.6136 6.774 20.4038 8.68165 20.4038 10.6708Z" stroke="black" stroke-width="1.5" stroke-linecap="round" stroke-linejoin="round"/>
</svg>
