<svg width="24" height="24" viewBox="0 0 24 24" fill="none" xmlns="http://www.w3.org/2000/svg">
<path d="M3.15381 7.04578C3.15381 15.3298 9.86981 22.0458 18.1538 22.0458H20.4038C21.0005 22.0458 21.5728 21.8087 21.9948 21.3868C22.4168 20.9648 22.6538 20.3925 22.6538 19.7958V18.4238C22.6538 17.9078 22.3028 17.4578 21.8018 17.3328L17.3788 16.2268C16.9388 16.1168 16.4768 16.2818 16.2058 16.6438L15.2358 17.9368C14.9538 18.3128 14.4668 18.4788 14.0258 18.3168C12.3887 17.7149 10.902 16.7644 9.66859 15.531C8.43522 14.2976 7.48468 12.8109 6.88281 11.1738C6.72081 10.7328 6.88681 10.2458 7.26281 9.96378L8.55581 8.99378C8.91881 8.72278 9.08281 8.25978 8.97281 7.82078L7.86681 3.39778C7.80595 3.15447 7.66553 2.93848 7.46786 2.78411C7.27019 2.62975 7.02661 2.54586 6.77581 2.54578H5.40381C4.80707 2.54578 4.23478 2.78283 3.81282 3.20479C3.39086 3.62674 3.15381 4.19904 3.15381 4.79578V7.04578Z" stroke="black" stroke-width="1.5" stroke-linecap="round" stroke-linejoin="round"/>
</svg>
