<svg width="24" height="24" viewBox="0 0 24 24" fill="none" xmlns="http://www.w3.org/2000/svg">
<path d="M22.6538 7.17078V17.6708C22.6538 18.2675 22.4168 18.8398 21.9948 19.2618C21.5728 19.6837 21.0005 19.9208 20.4038 19.9208H5.40381C4.80707 19.9208 4.23478 19.6837 3.81282 19.2618C3.39086 18.8398 3.15381 18.2675 3.15381 17.6708V7.17078M22.6538 7.17078C22.6538 6.57404 22.4168 6.00174 21.9948 5.57979C21.5728 5.15783 21.0005 4.92078 20.4038 4.92078H5.40381C4.80707 4.92078 4.23478 5.15783 3.81282 5.57979C3.39086 6.00174 3.15381 6.57404 3.15381 7.17078M22.6538 7.17078V7.41378C22.6539 7.79792 22.5555 8.17568 22.3682 8.51107C22.1809 8.84646 21.9109 9.12831 21.5838 9.32978L14.0838 13.9448C13.729 14.1633 13.3205 14.279 12.9038 14.279C12.4871 14.279 12.0786 14.1633 11.7238 13.9448L4.22381 9.33078C3.89673 9.12931 3.62668 8.84746 3.43938 8.51207C3.25208 8.17668 3.15377 7.79892 3.15381 7.41478V7.17078" stroke="black" stroke-width="1.5" stroke-linecap="round" stroke-linejoin="round"/>
</svg>
