<svg width="51" height="51" viewBox="0 0 51 51" fill="none" xmlns="http://www.w3.org/2000/svg">
<path d="M25.4062 0.54187C39.1819 0.54187 50.3495 11.7124 50.3496 25.4921V25.6063C50.3495 39.386 39.1819 50.5565 25.4062 50.5565H25.293C11.5173 50.5565 0.349687 39.386 0.349609 25.6063V25.4921C0.349731 11.7124 11.5174 0.54187 25.293 0.54187H25.4062ZM17.6152 10.7177C13.3411 10.7177 9.86353 14.1953 9.86328 18.4706V32.6298C9.86354 36.9051 13.3411 40.3827 17.6152 40.3827H33.0859C37.36 40.3827 40.8376 36.9051 40.8379 32.6298V18.4706C40.8376 14.1953 37.36 10.7177 33.0859 10.7177H17.6152ZM33.0859 13.453C35.8518 13.453 38.1033 15.704 38.1035 18.4706V32.6298C38.1033 35.3964 35.8518 37.6473 33.0859 37.6473H17.6152C14.8494 37.6473 12.5979 35.3964 12.5977 32.6298V18.4706C12.5979 15.704 14.8494 13.453 17.6152 13.453H33.0859ZM25.3506 18.3358C21.3741 18.3358 18.1406 21.5711 18.1406 25.5487C18.1408 29.5262 21.3742 32.7606 25.3506 32.7606C29.3251 32.7606 32.5604 29.5261 32.5605 25.5487C32.5605 21.5711 29.327 18.3359 25.3506 18.3358ZM25.3506 21.0731C27.8186 21.0732 29.8259 23.081 29.8262 25.5497C29.8262 28.0186 27.8188 30.0272 25.3506 30.0272C22.8824 30.0272 20.875 28.0186 20.875 25.5497C20.8752 23.0809 22.8825 21.0731 25.3506 21.0731ZM33.2285 15.6151C32.1566 15.6151 31.2854 16.4853 31.2852 17.5575C31.2852 18.6299 32.1564 19.5009 33.2285 19.5009C34.2987 19.5007 35.1709 18.6298 35.1709 17.5575C35.1706 16.4854 34.3003 15.6153 33.2285 15.6151Z" fill="black"/>
</svg>
