<svg width="51" height="50" viewBox="0 0 51 50" fill="none" xmlns="http://www.w3.org/2000/svg">
<path d="M25.1899 -0.00732422C38.9655 -0.00732422 50.1332 11.1632 50.1333 24.9429V25.0571C50.1332 38.8368 38.9656 50.0073 25.1899 50.0073H25.0767C11.301 50.0073 0.13338 38.8368 0.133301 25.0571V24.9429C0.13342 11.1632 11.3011 -0.00732422 25.0767 -0.00732422H25.1899ZM17.3989 10.1685C13.1248 10.1685 9.64722 13.6461 9.64697 17.9214V32.0806C9.64723 36.3559 13.1248 39.8335 17.3989 39.8335H32.8696C37.1437 39.8335 40.6213 36.3559 40.6216 32.0806V17.9214C40.6213 13.6461 37.1437 10.1685 32.8696 10.1685H17.3989ZM32.8696 12.9038C35.6355 12.9038 37.887 15.1548 37.8872 17.9214V32.0806C37.8869 34.8472 35.6355 37.0981 32.8696 37.0981H17.3989C14.6331 37.0981 12.3816 34.8472 12.3813 32.0806V17.9214C12.3816 15.1548 14.6331 12.9038 17.3989 12.9038H32.8696ZM25.1343 17.7866C21.1578 17.7866 17.9243 21.0219 17.9243 24.9995C17.9245 28.977 21.1579 32.2114 25.1343 32.2114C29.1088 32.2114 32.344 28.9769 32.3442 24.9995C32.3442 21.0219 29.1107 17.7867 25.1343 17.7866ZM25.1343 20.5239C27.6023 20.524 29.6096 22.5318 29.6099 25.0005C29.6099 27.4694 27.6024 29.478 25.1343 29.478C22.6661 29.478 20.6587 27.4694 20.6587 25.0005C20.6589 22.5317 22.6662 20.5239 25.1343 20.5239ZM33.0122 15.0659C31.9403 15.0659 31.0691 15.9361 31.0688 17.0083C31.0688 18.0807 31.9401 18.9517 33.0122 18.9517C34.0823 18.9514 34.9546 18.0805 34.9546 17.0083C34.9543 15.9363 34.0839 15.0661 33.0122 15.0659Z" fill="white"/>
</svg>
