<svg width="51" height="51" viewBox="0 0 51 51" fill="none" xmlns="http://www.w3.org/2000/svg">
<path d="M25.7598 0.54187C39.5314 0.541874 50.6953 11.7096 50.6953 25.4852V25.5985C50.6953 39.3742 39.5314 50.5419 25.7598 50.5419H25.6455C11.8741 50.5416 0.709961 39.374 0.709961 25.5985V25.4852C0.709961 11.7097 11.8741 0.542106 25.6455 0.54187H25.7598ZM12.1963 39.412H18.1172V20.6678H12.1963V39.412ZM32.6514 20.4178C31.4378 20.4178 30.3462 20.6541 29.376 21.1288C28.4059 21.6035 27.6332 22.2481 27.0605 23.0643V20.6151H21.4043V39.0809H27.0605V29.0536C27.0605 27.8188 27.3815 26.8588 28.0205 26.1757C28.6597 25.4907 29.5218 25.1493 30.6006 25.1493C31.6792 25.1494 32.5405 25.4925 33.1797 26.1757C33.8188 26.8588 34.1396 27.8186 34.1396 29.0536V39.0809H39.7627V28.2928C39.7626 25.8441 39.1177 23.9207 37.8271 22.5194V22.5175C36.5384 21.1181 34.812 20.4179 32.6514 20.4178ZM15.1758 11.6708C14.1374 11.6708 13.2893 11.9775 12.6309 12.5887C11.9742 13.2018 11.6445 13.9921 11.6445 14.8925C11.6445 15.7929 11.9724 16.5497 12.6309 17.161C13.2893 17.7723 14.1601 18.079 15.1758 18.079C16.1912 18.0789 17.0262 17.7722 17.6846 17.161C18.3413 16.5497 18.6709 15.8156 18.6709 14.8925C18.6709 13.9693 18.343 13.2001 17.6846 12.5887C17.028 11.9776 16.2139 11.6709 15.1758 11.6708Z" fill="black"/>
</svg>
