<svg width="51" height="50" viewBox="0 0 51 50" fill="none" xmlns="http://www.w3.org/2000/svg">
<path d="M25.5435 -0.00732422C39.3151 -0.00732009 50.479 11.1604 50.479 24.936V25.0493C50.479 38.825 39.3151 49.9927 25.5435 49.9927H25.4292C11.6578 49.9924 0.493652 38.8248 0.493652 25.0493V24.936C0.493652 11.1605 11.6578 -0.00708808 25.4292 -0.00732422H25.5435ZM11.98 38.8628H17.9009V20.1187H11.98V38.8628ZM32.4351 19.8687C31.2215 19.8687 30.1298 20.1049 29.1597 20.5796C28.1896 21.0543 27.4168 21.6989 26.8442 22.5151V20.0659H21.188V38.5317H26.8442V28.5044C26.8442 27.2696 27.1651 26.3096 27.8042 25.6265C28.4434 24.9415 29.3055 24.6001 30.3843 24.6001C31.4629 24.6002 32.3242 24.9433 32.9634 25.6265C33.6025 26.3096 33.9233 27.2695 33.9233 28.5044V38.5317H39.5464V27.7437C39.5463 25.2949 38.9014 23.3715 37.6108 21.9702V21.9683C36.3221 20.5689 34.5957 19.8687 32.4351 19.8687ZM14.9595 11.1216C13.9211 11.1216 13.073 11.4283 12.4146 12.0396C11.7578 12.6527 11.4282 13.4429 11.4282 14.3433C11.4282 15.2437 11.7561 16.0005 12.4146 16.6118C13.073 17.2232 13.9438 17.5298 14.9595 17.5298C15.9749 17.5297 16.8099 17.223 17.4683 16.6118C18.125 16.0005 18.4546 15.2664 18.4546 14.3433C18.4546 13.4201 18.1267 12.6509 17.4683 12.0396C16.8117 11.4284 15.9976 11.1217 14.9595 11.1216Z" fill="white"/>
</svg>
